<?xml version="1.0" encoding="UTF-8"?>
<svg xmlns="http://www.w3.org/2000/svg" viewBox="0 0 20 20" width="20" height="20">
  <circle fill="#6c63ff" cx="10" cy="10" r="9"/>
  <g fill="#f6f7fc">
    <path d="M7.18 8.18c-.34.46-.56 1-.63 1.58-.01.11-.07.16-.18.16H4.62c-.05 0-.1-.02-.13-.05-.04-.04-.05-.09-.05-.14.09-1.11.51-2.15 1.22-3.02.04-.04.08-.06.14-.06.05 0 .1.02.14.05l1.24 1.24c.07.07.08.15.02.24z"/>
    <path d="M13.5 6.15l-1.24 1.24c-.07.07-.15.08-.24.02-.59-.42-1.3-.66-2.02-.66-.73 0-1.44.23-2.03.66-.08.06-.17.06-.24-.02L5.49 6.15s-.05-.09-.05-.14c0-.05.03-.1.07-.14.24-.2.5-.38.78-.53.55-.31 1.15-.52 1.77-.63.32-.05.63-.08.95-.08.32 0 .63.03.94.08.32.05.61.13.91.23.3.11.59.23.86.39.28.15.54.33.78.53.04.04.06.08.06.14 0 .05-.02.1-.05.14z"/>
    <path d="M15.55 10.21c0 3.07-2.49 5.56-5.56 5.56-2.81 0-5.18-2.09-5.52-4.88 0-.05.01-.11.05-.14.04-.04.09-.06.14-.06h1.76c.11 0 .16.05.18.15.04.21.1.41.17.61.08.2.17.39.28.57.11.18.24.35.39.5.14.15.3.3.47.43.17.13.35.24.54.33.19.1.39.17.59.23.21.06.41.1.62.12.21.02.42.02.64 0 1.62-.14 2.94-1.43 3.12-3.04.1-.89-.11-1.7-.64-2.42-.06-.09-.06-.17.02-.24l1.24-1.24s.09-.05.14-.05c.05 0 .1.03.14.06.8.99 1.24 2.22 1.24 3.5z"/>
  </g>
</svg>